<svg width="70" height="70" viewBox="0 0 70 70" fill="none" xmlns="http://www.w3.org/2000/svg">
<g clip-path="url(#clip0_3719_3108)">
<rect width="70" height="70" fill="#19213D"/>
<path fill-rule="evenodd" clip-rule="evenodd" d="M21.2643 43.1788C24.3312 43.1814 26.8183 45.6671 26.8189 48.7352C26.8183 51.8015 24.3312 54.2892 21.263 54.2892C18.198 54.2894 15.7103 51.8013 15.7088 48.7355C15.7098 45.6673 18.1975 43.1796 21.2643 43.1788ZM45.7412 45.7416C51.6728 39.8101 51.6728 30.1902 45.7412 24.2583C39.8101 18.3273 30.19 18.3273 24.2584 24.2592C21.293 27.2245 19.81 31.1123 19.81 34.9998L11 35.0001C10.9997 28.8572 13.3426 22.7148 18.0284 18.029C27.4 8.65711 42.6 8.6571 51.9711 18.0284C61.343 27.4003 61.343 42.6 51.9711 51.9718C47.2856 56.6571 41.1431 59 35.0007 59L35.0004 50.19C38.888 50.1897 42.7755 48.7071 45.7412 45.7416Z" fill="white"/>
</g>
<defs>
<clipPath id="clip0_3719_3108">
<rect width="70" height="70" fill="white"/>
</clipPath>
</defs>
</svg>
